# xmcd
# 
# Track frame offsets:
#     150
#     13670
#     23243
#     33320
#     46195
#     58404
#     68703
#     87265
#     99419
#     108857
#     117668
#     126201
#     139564
#     157295
# 
# Disc length: 2251
# 
# Revision: 1
# Processed by: cddbd v1.5.2PL0 Copyright (c) Steve Scherf et al.
# Submitted via: BonkEnc v1.0.8
# 
DISCID=be08c90e
DTITLE=Cop - ... par minut
DYEAR=0
DGENRE=
TTITLE0=Dva tulaci
TTITLE1=Flam
TTITLE2=Mavej stuj
TTITLE3=Jen ji
TTITLE4=Epizoda
TTITLE5=Se psy
TTITLE6=Moonlight, Midnight
TTITLE7=Kamion
TTITLE8=Pres draty
TTITLE9=Baby
TTITLE10=Smoke, Smoke, Smoke
TTITLE11=Ma dati, dal
TTITLE12=Par minut
TTITLE13=Jsem volnej
EXTD=
EXTT0=
EXTT1=
EXTT2=
EXTT3=
EXTT4=
EXTT5=
EXTT6=
EXTT7=
EXTT8=
EXTT9=
EXTT10=
EXTT11=
EXTT12=
EXTT13=
PLAYORDER=
